<svg id="Layer_1" data-name="Layer 1" xmlns="http://www.w3.org/2000/svg" viewBox="0 0 512 512"><defs><style>.cls-1{fill:#ffa800;}.cls-2{fill:#ffe100;}.cls-3{fill:#f80;}.cls-4{fill:#fff;}.cls-5{fill:#00ad55;}.cls-6{fill:#00da6c;}.cls-7{fill:#e5e5e5;}.cls-8{fill:#a00b3f;}.cls-9{fill:#ff6e4a;}.cls-10{fill:#e2324e;}.cls-11{fill:#ff994d;}.cls-12{fill:gray;}.cls-13{fill:#666;}.cls-14{fill:#6ddae1;}.cls-15{fill:#4fc4d3;}.cls-16{fill:#c4df64;}.cls-17{fill:#96ca63;}.cls-18{fill:#fafafa;}</style></defs><title>Artboard 2</title><path class="cls-1" d="M91.67,197.4,85,208.46a5.43,5.43,0,0,1-9.33,0l-2.6-4.34,2.06-3.47L63.63,150.72l-1-4.45a5.51,5.51,0,0,0-4.12-4.12l8.35-1.9,5.8-1.3A5.41,5.41,0,0,1,79.14,143l1,4.45Z"/><polygon class="cls-2" points="66.83 140.25 40.92 146.22 36.04 125.07 61.95 119.16 66.83 140.25"/><polygon class="cls-1" points="67.76 117.81 61.95 119.11 36.04 125.07 25.03 127.62 20.21 106.48 62.88 96.66 67.76 117.81"/><path class="cls-2" d="M75.13,200.65l-2.06,3.47-4.39-7.27a5.48,5.48,0,0,0-9.33,0l-4.61,7.59-2.44,4a5.43,5.43,0,0,1-9.33,0l-2.6-4.34L36,196.86a5.48,5.48,0,0,0-9.33,0L22,204.45l-3.47,5.8a17.41,17.41,0,0,0-1.3,2.44l-3.47-15.07-2.55-11.17a32.47,32.47,0,0,1,24.4-39l5.26-1.25,17.57-4.07a5.51,5.51,0,0,1,4.12,4.12l1,4.45Z"/><polygon class="cls-2" points="51.22 119.91 47.52 121.14 31 126.79 23.99 129.19 20.91 109.2 48.11 99.92 51.22 119.91"/><path class="cls-1" d="M271.24,134.51l-76.83,114-54.22-27.11,3.2-3.85,18.49-22.28,71.78-88.76a24.31,24.31,0,0,1,29-7.16,20,20,0,0,1,3.85,2.28A23.92,23.92,0,0,1,271.24,134.51Z"/><path class="cls-2" d="M260.4,123.66l-76.83,114-40.18-20.12,18.49-22.28,71.79-88.76a24.31,24.31,0,0,1,29-7.16A24.54,24.54,0,0,1,260.4,123.66Z"/><path class="cls-3" d="M240.72,183.41s-18.75-16.57-12.5-27.62,31.26,0,31.26,0"/><path class="cls-4" d="M210,223.3,197.26,401.09A10,10,0,0,1,188,411H37.61a10,10,0,0,1-9.26-9.91L15.57,223.27a24.44,24.44,0,0,1,2.6-12.95L25,196.95a4.39,4.39,0,0,1,8,0l4.12,8,1.9,3.63a4.32,4.32,0,0,0,8,0l4.12-8,1.9-3.63A4.34,4.34,0,0,1,59.27,195h.3a5,5,0,0,1,1.68,1.89L67,208.11a4.13,4.13,0,0,0,6,1.89h1a8.43,8.43,0,0,0,3.33.2,4,4,0,0,0,2.48-2.26l1.77-3.38,1.72,3.38a4.06,4.06,0,0,0,7.47,0L92.5,204h1.22l1.8,3.35a4.38,4.38,0,0,0,7.85,0l4-7.35,2.18,4h.05l1.8,3.35a4.38,4.38,0,0,0,7.85,0l1.8-3.3,1.8,3.3a4.38,4.38,0,0,0,7.85,0l4-7.35h.05l2.18,4v1.05l1.84,3.57a4.36,4.36,0,0,0,8,0l1.84-3.63h.05l1.84,3.63a4.36,4.36,0,0,0,8,0l4.11-8,1.84-3.63a4.39,4.39,0,0,1,8,0l6,11.59a4.52,4.52,0,0,0,1.95,2.06,4.26,4.26,0,0,0,6-2.06l6-11.59a4.26,4.26,0,0,1,3.41-2.49,4.33,4.33,0,0,1,4.6,2.49l6.88,13.37c.05.05.05.16.11.22A24.12,24.12,0,0,1,210,223.3Z"/><path class="cls-1" d="M95.46,200.49l-4.12,8a4.37,4.37,0,0,1-8,0l-1.84-3.63,4.12-8a4.39,4.39,0,0,1,8,0Z"/><path class="cls-1" d="M243.15,223l-12.8,178.05a10,10,0,0,1-9.27,9.92H204.82a10,10,0,0,0,9.27-9.92L226.89,223a24.38,24.38,0,0,0-2.6-12.9l-2.77-5.42,4.12-8a4.39,4.39,0,0,1,8,0l6.89,13.39A24.37,24.37,0,0,1,243.15,223Z"/><path class="cls-2" d="M226.28,223.3,213.5,401.09a10,10,0,0,1-9.26,9.91H70.13a10,10,0,0,1-9.26-9.91L48.09,223.27a24.44,24.44,0,0,1,2.6-12.95l2.76-5.42,4.12-8A5.08,5.08,0,0,1,59.3,195h.28a4.19,4.19,0,0,1,6,1.89l1.84,3.51,4,7.71A4.85,4.85,0,0,0,73.06,210h1a8.43,8.43,0,0,0,3.33.2,4,4,0,0,0,2.48-2.26l1.77-3.38,1.72,3.38a4.06,4.06,0,0,0,7.47,0L92.5,204H90.76l2.32-4,2-3.35a4.81,4.81,0,0,1,8.33,0l2,3.35,2.32,4h.06l1.93,3.35a4.83,4.83,0,0,0,8.39,0L120,204v0l2.38-4,1.93-3.35a4.86,4.86,0,0,1,8.39,0l1.93,3.35h.06l2.32,4v1.05l1.84,3.57a4.36,4.36,0,0,0,8,0l1.84-3.63h.05l2.22-4.33,1.9-3.63a4.35,4.35,0,0,1,8,0l1.9,3.63,2.22,4.33H165l7.2,3.63a6.9,6.9,0,0,0,8.34,2.06,4.3,4.3,0,0,0,2.49-2.06l4.11-8,5.79-6.23a8.09,8.09,0,0,1,3,.11,4.87,4.87,0,0,1,3.3,2.49l1.9,3.63,3.52,8a4.69,4.69,0,0,0,2.87,2c3.9,1.3,10.18.6,11.48-2l1.9-3.63,2.76,5.41A24.34,24.34,0,0,1,226.28,223.3Z"/><path class="cls-2" d="M70.14,411H53.88a10,10,0,0,1-9.27-9.92l-12.8-178a24.47,24.47,0,0,1,2.6-13l2.77-5.42,1.9,3.63a4.33,4.33,0,0,0,8,0l4.12-8,2.28,4.34-2.77,5.42a24.47,24.47,0,0,0-2.6,13l12.8,178A10,10,0,0,0,70.14,411Z"/><path d="M16.3,237.63a5.42,5.42,0,0,1-5.4-5l-.76-9a27.18,27.18,0,0,1,2.16-13.13,5.42,5.42,0,1,1,10,4.31,16.27,16.27,0,0,0-1.31,7.88l.76,9a5.42,5.42,0,0,1-4.95,5.86Z"/><path d="M217.42,416H41.49a16.53,16.53,0,0,1-16.43-15.14L14.35,273.46a5.5,5.5,0,0,1,11-.92L36,400a5.48,5.48,0,0,0,5.47,5H217.32a5.37,5.37,0,0,0,5.36-4.9l14.91-177.37a16.08,16.08,0,0,0-2.27-9.6l-8-13.35-7,11.56a10.81,10.81,0,0,1-18.54,0l-7-11.53-7,11.54a10.82,10.82,0,0,1-18.55,0l-7-11.55a5.38,5.38,0,0,1,1.13-10.7,10.83,10.83,0,0,1,8.11,5.11l7,11.57,7-11.56a10.76,10.76,0,0,1,9.26-5.2h.08a10.76,10.76,0,0,1,9.26,5.18l7,11.58L218,194.34a10.83,10.83,0,0,1,18.58-.21l8.1,13.43a26.92,26.92,0,0,1,3.78,16.1L233.56,401.15A16.23,16.23,0,0,1,217.42,416Z"/><path d="M18.2,259.32A5.44,5.44,0,0,1,14.35,250a5.61,5.61,0,0,1,4.88-1.46,3.3,3.3,0,0,1,1,.32,3,3,0,0,1,.92.49A5.14,5.14,0,0,1,22,250a5.5,5.5,0,0,1,0,7.7c-.27.22-.55.43-.87.65a3,3,0,0,1-.92.49,3.37,3.37,0,0,1-1,.33,6.87,6.87,0,0,1-1,.11Z"/><path d="M151.66,389H63.74a5.91,5.91,0,0,1-5.31-3.74A5.52,5.52,0,0,1,63.66,378h87.92a5.91,5.91,0,0,1,5.31,3.74A5.52,5.52,0,0,1,151.66,389Z"/><path d="M194.57,389H172.65a5.91,5.91,0,0,1-5.31-3.75,5.52,5.52,0,0,1,5.23-7.25h21.92a5.91,5.91,0,0,1,5.31,3.74A5.52,5.52,0,0,1,194.57,389Z"/><path d="M135.89,352.17a54.81,54.81,0,0,1-45.61-24.36,5.49,5.49,0,1,1,9.12-6.11c15.19,22.73,48.43,27.17,69.4,4.93A40.65,40.65,0,0,0,179.72,302c2.41-30.48-23.21-52.13-50.26-48.12A43.9,43.9,0,0,0,92,297.3l0,1.77a32,32,0,0,0,0,3.22,5.49,5.49,0,1,1-10.93,1c-.11-1.18-.08-2.92,0-4.46l0-1.52c0-36.64,35.92-64.9,74.48-51.47a51.9,51.9,0,0,1,31.86,31.86c13.43,38.55-14.82,74.48-51.47,74.48Z"/><path d="M86,308.12a5.4,5.4,0,0,1-3.83-1.59L65.91,290.26a5.42,5.42,0,0,1,7.67-7.67L86,295,98.44,282.6a5.42,5.42,0,0,1,7.67,7.67L89.84,306.53A5.4,5.4,0,0,1,86,308.12Z"/><path d="M230.19,199.95a5.42,5.42,0,0,1-4.47-8.48l41-60a18,18,0,1,0-28.89-21.55L201.39,155a5.42,5.42,0,0,1-8.43-6.81l36.49-45.16a28.86,28.86,0,0,1,46.26,34.52l-41,60A5.41,5.41,0,0,1,230.19,199.95Z"/><path d="M161.88,200.68a5.4,5.4,0,0,1-5.42-5.4,5.57,5.57,0,0,1,1.23-3.49l.76-.92a5.42,5.42,0,1,1,8.39,6.87l-.59.73a5.42,5.42,0,0,1-4.36,2.21Z"/><path d="M237.13,187.48c-2.26-2-21.81-19.9-13.63-34.36,8.42-14.89,35.15-3.62,38.17-2.29l-4.38,9.92c-8.39-3.69-21.88-6.62-24.35-2.29-2.89,5.1,6,16.12,11.37,20.89Z"/><path class="cls-1" d="M61.64,163.72l2.06,8.93"/><polygon class="cls-1" points="62 119.11 62 119.16 36.08 125.07 62 119.11"/><polygon class="cls-1" points="62 119.11 62 119.16 36.08 125.07 62 119.11"/><path class="cls-4" d="M75.13,140.15l-17.57,4.07-5.26,1.25a32.47,32.47,0,0,0-24.4,39l2.55,11.17a5.24,5.24,0,0,0-3.69,2.49l-8.08,13.39a17.3,17.3,0,0,0-1.3,2.44l-6-26.24a32.47,32.47,0,0,1,24.4-39L41,147.47l25.92-6,5.8-1.3A5.09,5.09,0,0,1,75.13,140.15Z"/><polygon class="cls-2" points="45 122.36 45 122.42 19.08 128.33 45 122.36"/><polygon class="cls-2" points="45 122.36 45 122.42 19.08 128.33 45 122.36"/><path d="M17.28,218.11l-.51,0A5.43,5.43,0,0,1,12,213.9L6,187.66a37.89,37.89,0,0,1,28.47-45.48l37-8.52A10.56,10.56,0,0,1,79.61,135a10.92,10.92,0,0,1,4.8,6.71l12.53,54.44a5.44,5.44,0,0,1-.64,4l-6.67,11.06a10.86,10.86,0,0,1-18.62,0l-7-11.6-7.1,11.62a10.85,10.85,0,0,1-18.61,0l-7-11.59-8.12,13.39a12.91,12.91,0,0,0-1,1.82A5.42,5.42,0,0,1,17.28,218.11ZM64,189h0a10.8,10.8,0,0,1,9.29,5.21l7,11.62,5.58-9.19-12-52.23-37,8.5a27,27,0,0,0-20.37,32.48l3,13L22,194.23a10.9,10.9,0,0,1,18.6,0l7,11.63,7.1-11.62A10.8,10.8,0,0,1,64,189Z"/><path d="M63.69,178.07a5.42,5.42,0,0,1-5.28-4.21l-2.05-8.93a5.42,5.42,0,0,1,10.57-2.43L69,171.43a5.42,5.42,0,0,1-4.07,6.5A5.59,5.59,0,0,1,63.69,178.07Z"/><path d="M40.92,151.64a5.43,5.43,0,0,1-5.28-4.2L30.75,126.3a5.42,5.42,0,0,1,4.08-6.51l25.92-5.91a5.42,5.42,0,0,1,6.49,4.07L72.12,139a5.43,5.43,0,0,1-4.07,6.5l-25.91,6A5.63,5.63,0,0,1,40.92,151.64Zm1.63-22.49L45,139.72l15.34-3.53-2.44-10.54Z"/><path id="SVGCleanerId_0" data-name="SVGCleanerId 0" d="M36.65,130.5a5.46,5.46,0,0,1-5.16-7.15,5.25,5.25,0,0,1,4-3.56h0l25.89-6a5.46,5.46,0,0,1,6.3,3.34,5.14,5.14,0,0,1,.34,1.95v.06a5.42,5.42,0,0,1-4.21,5.28l-25.92,5.91a5.45,5.45,0,0,1-1.21.14Z"/><path d="M25,133a5.41,5.41,0,0,1-5.28-4.22l-4.82-21.14A5.42,5.42,0,0,1,19,101.19l42.67-9.81a5.42,5.42,0,0,1,6.5,4.07L73,116.59a5.42,5.42,0,0,1-4.1,6.51L26.25,132.9A5.32,5.32,0,0,1,25,133Zm1.67-22.5,2.41,10.57,32.14-7.4-2.44-10.55Z"/><path id="SVGCleanerId_0-2" data-name="SVGCleanerId 0" d="M36.65,130.5a5.46,5.46,0,0,1-5.16-7.15,5.25,5.25,0,0,1,4-3.56h0l25.89-6a5.46,5.46,0,0,1,6.3,3.34,5.14,5.14,0,0,1,.34,1.95v.06a5.42,5.42,0,0,1-4.21,5.28l-25.92,5.91a5.45,5.45,0,0,1-1.21.14Z"/><path d="M115.39,216h-4.65a5.91,5.91,0,0,1-5.31-3.74,5.52,5.52,0,0,1,5.23-7.26h4.65a5.91,5.91,0,0,1,5.31,3.74A5.52,5.52,0,0,1,115.39,216Z"/><path d="M178.14,216h-2.06a5.91,5.91,0,0,1-5.31-3.75A5.52,5.52,0,0,1,176,205h1.85c.55,0,1.94,0,2.48-.12a5.5,5.5,0,1,1,1.37,10.91,30.72,30.72,0,0,1-3.56.2Z"/><path class="cls-5" d="M86.41,145.89a4.66,4.66,0,0,0,.05.87,11.19,11.19,0,0,0-1.79-.54,8.9,8.9,0,0,1,1.74-.33Z"/><path class="cls-5" d="M197.18,151.64l-34.54,42.67a5.37,5.37,0,0,0-5.26,2.55l-7,11.6a5.43,5.43,0,0,1-9.33,0l-3.47-5.69,4-6.51a5.37,5.37,0,0,1,5.26-2.55L181.29,151a30.17,30.17,0,0,0-9.92-4.83,27.94,27.94,0,0,1,6.78-.76A32.21,32.21,0,0,1,197.18,151.64Z"/><path class="cls-5" d="M127.94,113.63a35.6,35.6,0,0,1,6.83-.7A32.56,32.56,0,0,1,167.3,145.3a25.71,25.71,0,0,0-5-.43,31.86,31.86,0,0,0-11,1.9,10.84,10.84,0,0,0,.11-1.9,32.53,32.53,0,0,0-23.48-31.23Z"/><path class="cls-6" d="M181,151l-34.54,42.67a5.37,5.37,0,0,0-5.26,2.55l-4,6.51-3.52-5.91a5.48,5.48,0,0,0-9.33,0L121.29,202l-3.9,6.45a5.43,5.43,0,0,1-9.33,0l-3.47-5.69L101,196.86a5.48,5.48,0,0,0-9.33,0l-.33.54L79.87,147.47a25.11,25.11,0,0,1,4.5-1.25,11.25,11.25,0,0,1,1.79.54,4.61,4.61,0,0,1-.05-.87,25.51,25.51,0,0,1,5-.43,31.86,31.86,0,0,1,11,1.9,10.84,10.84,0,0,1-.11-1.9,32.56,32.56,0,0,1,25.7-31.83,32.53,32.53,0,0,1,23.48,31.23,10.78,10.78,0,0,1-.11,1.9,31.86,31.86,0,0,1,11-1.9,25.66,25.66,0,0,1,5,.43v.16a10.78,10.78,0,0,1-.11,1.9,28,28,0,0,1,4.18-1.14A30.15,30.15,0,0,1,181,151Z"/><path class="cls-6" d="M171.07,146.22a28,28,0,0,0-4.18,1.14,10.84,10.84,0,0,0,.11-1.9v-.16a20.13,20.13,0,0,1,4.07.92Z"/><path d="M145.67,216.53a10.77,10.77,0,0,1-9.31-5.28l-7-11.59-7,11.6a10.85,10.85,0,0,1-18.62,0l-7-11.58-.38.53a5.42,5.42,0,0,1-9.92-1.59l-11.5-49.94a5.42,5.42,0,0,1,3.4-6.3,38.31,38.31,0,0,1,18.85-1.91,38,38,0,0,1,75.25,0,38.22,38.22,0,0,1,28,6.79,5.42,5.42,0,0,1,1,7.8l-34.54,42.67a5.34,5.34,0,0,1-4.8,2L155,211.28a10.75,10.75,0,0,1-9.29,5.25Zm-16.32-27.69a10.8,10.8,0,0,1,9.29,5.2l7,11.63,7.1-11.62a10.75,10.75,0,0,1,7.17-5L189,153.15a27.35,27.35,0,0,0-19.93-.69,5.42,5.42,0,0,1-7.2-6,7.08,7.08,0,0,0,0-1,27.11,27.11,0,1,0-54.22,0,7.2,7.2,0,0,0,0,1,5.54,5.54,0,0,1-1.93,5.07,5.45,5.45,0,0,1-5.27,1,27,27,0,0,0-13.87-1.14l8.66,37.61A11,11,0,0,1,106,194l7,11.61,7-11.59a10.81,10.81,0,0,1,9.31-5.22Z"/><path d="M148,216h-4.65a5.91,5.91,0,0,1-5.31-3.74A5.52,5.52,0,0,1,143.3,205H148a5.91,5.91,0,0,1,5.31,3.74A5.52,5.52,0,0,1,148,216Z"/><path d="M113.08,181.47a5.41,5.41,0,0,1-1.72-.28l-26.68-8.89A5.42,5.42,0,0,1,88.12,162l26.68,8.89a5.42,5.42,0,0,1-1.72,10.57Z"/><path d="M156.45,179.4a5.42,5.42,0,0,1-1.11-10.73L182.56,163a5.42,5.42,0,0,1,2.22,10.62l-27.22,5.69A5.63,5.63,0,0,1,156.45,179.4Z"/><path d="M134.5,178.31a5.54,5.54,0,0,1-5.4-4.35,4.59,4.59,0,0,1-.1-1.06V139.74a5.32,5.32,0,0,1,3.17-4.94,5.54,5.54,0,0,1,7.83,5v33a5.5,5.5,0,0,1-5.5,5.5Z"/><rect class="cls-7" x="214" y="188" width="261" height="223"/><path class="cls-8" d="M192,209v26.8a22,22,0,0,0,44,.37V209Z"/><path class="cls-9" d="M236,209v26.8a22,22,0,0,0,44,.37V209Z"/><path class="cls-8" d="M280,209v26.8a22,22,0,0,0,44,.37V209Z"/><path class="cls-9" d="M323,209v26.8a22,22,0,0,0,44,.37V209Z"/><path class="cls-8" d="M367,209v26.8a22,22,0,0,0,44,.37V209Z"/><path class="cls-9" d="M410,209v26.8a22,22,0,0,0,44,.37V209Z"/><path class="cls-8" d="M454,209v26.8a22,22,0,0,0,44,.37V209Z"/><polygon class="cls-10" points="496.82 209 193.49 209 225.99 144 464.32 144 496.82 209"/><rect class="cls-11" x="323" y="144" width="44" height="65"/><polygon class="cls-11" points="399.57 144 432.07 144 453.74 209 410.41 209 399.57 144"/><polygon class="cls-11" points="258.24 144 290.74 144 279.91 209 236.58 209 258.24 144"/><rect class="cls-12" x="313" y="275" width="65" height="136"/><rect class="cls-13" x="312" y="275" width="17" height="136"/><rect class="cls-14" x="242" y="275" width="44" height="54"/><rect class="cls-14" x="405" y="275" width="44" height="54"/><polygon class="cls-15" points="242 275 242 301.71 268.71 275 242 275"/><polygon class="cls-15" points="279.58 275 242 311.9 242 329 246.58 329 286 290.3 286 275 279.58 275"/><polygon class="cls-15" points="257.38 329 285 329 285 301.38 257.38 329"/><polygon class="cls-15" points="406 275 406 301.71 432.71 275 406 275"/><polygon class="cls-15" points="442.58 275 405 311.9 405 329 409.58 329 449 290.3 449 275 442.58 275"/><polygon class="cls-15" points="420.38 329 448 329 448 301.38 420.38 329"/><path class="cls-16" d="M285.78,389H241.19A10.22,10.22,0,0,1,231,378.81V366.19A10.22,10.22,0,0,1,241.19,356h44.63A10.22,10.22,0,0,1,296,366.19v12.59A10.25,10.25,0,0,1,285.78,389Z"/><path class="cls-17" d="M231,367v11.81A10.22,10.22,0,0,0,241.19,389h44.63A10.22,10.22,0,0,0,296,378.81V367Z"/><path class="cls-16" d="M448.81,389H404.19A10.22,10.22,0,0,1,394,378.81V366.19A10.22,10.22,0,0,1,404.19,356h44.63A10.22,10.22,0,0,1,459,366.19v12.63A10.22,10.22,0,0,1,448.81,389Z"/><path class="cls-17" d="M394,367v11.81A10.22,10.22,0,0,0,404.19,389h44.63A10.22,10.22,0,0,0,459,378.81V367Z"/><rect class="cls-10" x="214" y="378" width="98" height="33"/><rect class="cls-10" x="378" y="378" width="98" height="33"/><rect class="cls-18" x="275" y="95" width="141" height="33"/><path d="M285.91,270H242.09a5.09,5.09,0,0,0-5.09,5.09V324h-5.41a5.18,5.18,0,0,0-5.24,4.55,5,5,0,0,0,5,5.45h63.74a5.18,5.18,0,0,0,5.24-4.55,5,5,0,0,0-5-5.45H291V275.09A5.09,5.09,0,0,0,285.91,270ZM247,324V280h33v44Z"/><path d="M448.87,270H405.09a5.09,5.09,0,0,0-5.09,5.09V324h-5.41a5.18,5.18,0,0,0-5.24,4.55,5,5,0,0,0,5,5.45h63.74a5.18,5.18,0,0,0,5.24-4.55,5,5,0,0,0-5-5.45H454V275.06A5.09,5.09,0,0,0,448.87,270ZM410,324V280h33v44Z"/><path d="M499.77,406H481V263.69a26.94,26.94,0,0,0,22-26.31V210.23a5.06,5.06,0,0,0-.54-2.28l-33-65.14a5.16,5.16,0,0,0-4.61-2.81H377v-7h38.91a5.09,5.09,0,0,0,5.09-5.09V95.09A5.09,5.09,0,0,0,415.91,90h-21a5.17,5.17,0,0,0-5.24,4.55,5,5,0,0,0,5,5.45H411v23H279V100h85.79a4.86,4.86,0,0,0,4.95-5.41A5.22,5.22,0,0,0,364.45,90h-89.8c-2.74,0-4.65,5.06-4.65,5.06v32.84a5.09,5.09,0,0,0,5.09,5.09H314v6.61c0,.13,0,.26,0,.39H225.16a5.16,5.16,0,0,0-4.61,2.82l-33,65.2a5.07,5.07,0,0,0-.54,2.28v27.17a27,27,0,0,0,22,26.34v70.39a5.18,5.18,0,0,0,4.55,5.24,5,5,0,0,0,5.45-5V263.17a26.91,26.91,0,0,0,16.67-10.64,26.85,26.85,0,0,0,43.53,0,26.85,26.85,0,0,0,43.53,0,26.85,26.85,0,0,0,43.53,0,26.85,26.85,0,0,0,43.53,0,26.85,26.85,0,0,0,43.53,0A26.91,26.91,0,0,0,470,263.17V373h-6v-6.72A15.28,15.28,0,0,0,448.72,351H404.28A15.28,15.28,0,0,0,389,366.28V373h-6V274.09a5.09,5.09,0,0,0-5.09-5.09H313.09a5.09,5.09,0,0,0-5.09,5.09V373h-7v-6.72A15.28,15.28,0,0,0,285.72,351H241.28A15.28,15.28,0,0,0,226,366.28V373h-7V362.61s-1.57-4.81-4.09-5.17a5.21,5.21,0,0,0-5.91,5V406H187.4a5,5,0,0,0-5.17,4.21,5.05,5.05,0,0,0,5,5.79H497.51a9.08,9.08,0,0,0,5.06-1.47C508.89,410.3,499.77,406,499.77,406ZM489,204H457.49l-18.33-55h22.38Zm-60.62-55,18.33,55H414.67l-9.17-55ZM318,149v55H285.65l9.17-55Zm10,0h33v55H328V149Zm44,0h23.19l9.17,55H372V149Zm-49-9.39V133h44v7H323C323,139.87,323,139.74,323,139.61ZM284.81,149l-9.17,55H243.56l18.33-55Zm-56,0h22.38l-18.33,55H201.27ZM198,237V215h33v22.07a16.5,16.5,0,1,1-33-.12Zm44,0V215h33v22.07a16.5,16.5,0,1,1-33-.12Zm44,0V215h33v22.07a16.5,16.5,0,1,1-33-.12Zm42,0V215h33v22.07a16.5,16.5,0,1,1-33-.12Zm44,0V215h33v22.07a16.5,16.5,0,1,1-33-.12Zm43,0V215h33v22.07a16.5,16.5,0,1,1-33-.12Zm44,0V215h33v22.07a16.5,16.5,0,1,1-33-.12ZM399,366.29a5.2,5.2,0,0,1,5.09-5.29h44.81a5.09,5.09,0,0,1,5.09,5.09V373H399v-6.71Zm-163,0a5.2,5.2,0,0,1,5.09-5.29h44.81a5.09,5.09,0,0,1,5.09,5.09V373H236v-6.71ZM219,383h88v23H219Zm99-103h55V406H318Zm65,126V383h88v23Z"/></svg>