<svg id="Layer_1" data-name="Layer 1" xmlns="http://www.w3.org/2000/svg" viewBox="0 0 896.1 564.02"><defs><style>.cls-1{fill:#ffa800;}.cls-2{fill:#ffe100;}.cls-3{fill:#f80;}.cls-4{fill:#fff;}.cls-5{fill:#00ad55;}.cls-6{fill:#00da6c;}.cls-7{fill:#e5e5e5;}.cls-8{fill:#a00b3f;}.cls-9{fill:#ff6e4a;}.cls-10{fill:#e2324e;}.cls-11{fill:#ff994d;}.cls-12{fill:gray;}.cls-13{fill:#666;}.cls-14{fill:#6ddae1;}.cls-15{fill:#4fc4d3;}.cls-16{fill:#c4df64;}.cls-17{fill:#96ca63;}.cls-18{fill:#fafafa;}.cls-19{font-size:110px;font-family:ProximaNovaSoft-Bold, Proxima Nova Soft;font-weight:700;}.cls-20{letter-spacing:-0.08em;}.cls-21{letter-spacing:0em;}.cls-22{letter-spacing:-0.02em;}.cls-23{letter-spacing:-0.03em;}.cls-24{letter-spacing:-0.02em;}.cls-25{letter-spacing:-0.02em;}.cls-26{letter-spacing:-0.02em;}.cls-27{letter-spacing:-0.02em;}.cls-28{letter-spacing:-0.03em;}.cls-29{letter-spacing:-0.03em;}.cls-30{letter-spacing:-0.02em;}.cls-31{letter-spacing:-0.02em;}.cls-32{letter-spacing:-0.07em;}</style></defs><title>logo</title><path class="cls-1" d="M274.59,140.62l-8,13.19a6.48,6.48,0,0,1-11.12,0l-3.1-5.17,2.46-4.14L241.16,84.94l-1.23-5.3A6.57,6.57,0,0,0,235,74.72l10-2.26,6.92-1.55a6.45,6.45,0,0,1,7.76,4.85l1.23,5.3Z" transform="translate(-7.95 -14)"/><polygon class="cls-2" points="237.03 58.46 206.12 65.57 200.29 40.35 231.21 33.3 237.03 58.46"/><polygon class="cls-1" points="238.13 31.69 231.21 33.24 200.29 40.35 187.17 43.39 181.41 18.17 232.31 6.47 238.13 31.69"/><path class="cls-2" d="M254.87,144.5l-2.46,4.14L247.17,140a6.53,6.53,0,0,0-11.12,0l-5.5,9.05-2.91,4.79a6.48,6.48,0,0,1-11.12,0l-3.1-5.17L208.18,140a6.53,6.53,0,0,0-11.12,0l-5.5,9.05-4.14,6.92a20.76,20.76,0,0,0-1.55,2.91l-4.14-18-3-13.32a38.72,38.72,0,0,1,29.1-46.49l6.27-1.49,21-4.85a6.57,6.57,0,0,1,4.91,4.91l1.23,5.3Z" transform="translate(-7.95 -14)"/><polygon class="cls-2" points="218.4 34.2 213.99 35.66 194.29 42.4 185.92 45.27 182.25 21.42 214.69 10.35 218.4 34.2"/><path class="cls-1" d="M488.77,65.61,397.14,201.53,332.47,169.2l3.82-4.59L358.34,138,444,32.17a29,29,0,0,1,34.6-8.54,23.8,23.8,0,0,1,4.59,2.72A28.53,28.53,0,0,1,488.77,65.61Z" transform="translate(-7.95 -14)"/><path class="cls-2" d="M475.84,52.67,384.2,188.6l-47.92-24L358.34,138,444,32.17a29,29,0,0,1,34.6-8.54A29.27,29.27,0,0,1,475.84,52.67Z" transform="translate(-7.95 -14)"/><path class="cls-3" d="M452.37,123.93S430,104.17,437.46,91s37.28,0,37.28,0" transform="translate(-7.95 -14)"/><path class="cls-4" d="M416.22,171.85,401,384.17A12,12,0,0,1,389.9,396H210.12a12,12,0,0,1-11.06-11.84L183.79,171.77a29.2,29.2,0,0,1,3.11-15.46l8.22-16a5.24,5.24,0,0,1,9.58,0l4.92,9.51,2.26,4.33a5.16,5.16,0,0,0,9.51,0l4.92-9.51,2.26-4.33A5.18,5.18,0,0,1,236,138h.28a5.94,5.94,0,0,1,2,2.27l6.92,13.47a5,5,0,0,0,7.24,2.27h1.35a9.83,9.83,0,0,0,3.88.23,4.63,4.63,0,0,0,2.89-2.64l2.06-3.94,2,3.94a4.74,4.74,0,0,0,8.71,0l2-4.59h-.45l2.25,4.19a5.47,5.47,0,0,0,9.81,0l5-9.19,2.72,5h.07l2.25,4.19a5.47,5.47,0,0,0,9.81,0l2.25-4.12,2.25,4.12a5.47,5.47,0,0,0,9.81,0l5-9.19h.07l2.72,5v1.06l2.2,4.27a5.21,5.21,0,0,0,9.57,0L343,150H343l2.2,4.33a5.21,5.21,0,0,0,9.57,0l4.91-9.5,2.2-4.33a5.24,5.24,0,0,1,9.57,0l7.18,13.84a5.39,5.39,0,0,0,2.33,2.46,5.09,5.09,0,0,0,7.18-2.46l7.18-13.84a5.09,5.09,0,0,1,4.07-3,5.17,5.17,0,0,1,5.5,3l8.21,16c.06.06.06.19.13.26A28.8,28.8,0,0,1,416.22,171.85Z" transform="translate(-7.95 -14)"/><path class="cls-1" d="M279.12,144.3l-4.91,9.51a5.21,5.21,0,0,1-9.57,0l-2.2-4.33,4.91-9.51a5.24,5.24,0,0,1,9.57,0Z" transform="translate(-7.95 -14)"/><path class="cls-1" d="M455.27,170.8,440,383.17A12,12,0,0,1,429,395h-19.4a12,12,0,0,0,11.06-11.83L435.87,170.8a29.07,29.07,0,0,0-3.1-15.39l-3.3-6.47,4.91-9.51a5.24,5.24,0,0,1,9.57,0l8.21,16A29.07,29.07,0,0,1,455.27,170.8Z" transform="translate(-7.95 -14)"/><path class="cls-2" d="M435.61,171.85,420.35,384.17A12,12,0,0,1,409.3,396H248.93a12,12,0,0,1-11.06-11.84L222.59,171.77a29.2,29.2,0,0,1,3.11-15.46l3.3-6.47,4.92-9.51A6.06,6.06,0,0,1,236,138h.29a5,5,0,0,1,7.24,2.27l2.2,4.22,4.78,9.25a5.82,5.82,0,0,0,2,2.27h1.35a9.83,9.83,0,0,0,3.88.23,4.63,4.63,0,0,0,2.89-2.64l2.06-3.94,2,3.94a4.74,4.74,0,0,0,8.71,0l2-4.59h-.74l2.73-5,2.33-4.19a5.5,5.5,0,0,1,9.8,0L291.8,144l2.73,5h.07l2.27,4.19a5.52,5.52,0,0,0,9.87,0l2.27-4.12V149l2.8-5,2.27-4.19a5.56,5.56,0,0,1,9.87,0L326.2,144h.07l2.73,5v1.06l2.2,4.27a5.21,5.21,0,0,0,9.57,0L343,150H343l2.65-5.17,2.26-4.33a5.19,5.19,0,0,1,9.5,0l2.26,4.33,2.65,5.17h.06l8.6,4.33a8.24,8.24,0,0,0,10,2.46,5.14,5.14,0,0,0,3-2.46l4.91-9.5,6.92-7.43a9.66,9.66,0,0,1,3.62.13,5.81,5.81,0,0,1,3.94,3l2.26,4.33,4.2,9.5a5.6,5.6,0,0,0,3.43,2.39c4.65,1.55,12.15.71,13.71-2.39l2.26-4.33,3.3,6.46A29.07,29.07,0,0,1,435.61,171.85Z" transform="translate(-7.95 -14)"/><path class="cls-2" d="M248.92,395h-19.4a12,12,0,0,1-11.06-11.83L203.2,170.87a29.18,29.18,0,0,1,3.1-15.46l3.3-6.47,2.26,4.33a5.16,5.16,0,0,0,9.51,0l4.91-9.51,2.72,5.17-3.3,6.47a29.19,29.19,0,0,0-3.1,15.46l15.26,212.3A12,12,0,0,0,248.92,395Z" transform="translate(-7.95 -14)"/><path d="M184.7,188.6a6.46,6.46,0,0,1-6.44-5.92l-.91-10.74a32.42,32.42,0,0,1,2.58-15.66,6.47,6.47,0,1,1,11.87,5.14,19.41,19.41,0,0,0-1.57,9.4l.91,10.76a6.47,6.47,0,0,1-5.9,7Z" transform="translate(-7.95 -14)"/><path d="M424.57,402h-210a19.53,19.53,0,0,1-19.42-17.89L182.52,233.55a6.5,6.5,0,0,1,12.95-1.09l12.67,150.6A6.48,6.48,0,0,0,214.6,389h209.9a6.42,6.42,0,0,0,6.41-5.85l17.81-211.86A19.2,19.2,0,0,0,446,159.82l-9.61-15.95L428,157.68a12.91,12.91,0,0,1-22.15,0l-8.37-13.77-8.38,13.79a12.92,12.92,0,0,1-22.15,0l-8.31-13.8A6.42,6.42,0,0,1,360,131.1a12.94,12.94,0,0,1,9.68,6.1L378,151l8.37-13.8A12.85,12.85,0,0,1,397.46,131h.07a12.85,12.85,0,0,1,11.06,6.19L417,151l8.29-13.64a12.94,12.94,0,0,1,22.18-.25l9.67,16a32.14,32.14,0,0,1,4.52,19.22l-17.81,211.9A19.38,19.38,0,0,1,424.57,402Z" transform="translate(-7.95 -14)"/><path d="M187,214.47a6.49,6.49,0,0,1-4.59-11.06,6.69,6.69,0,0,1,5.82-1.75,3.93,3.93,0,0,1,1.23.38,3.61,3.61,0,0,1,1.1.58,6.13,6.13,0,0,1,1,.78,6.56,6.56,0,0,1,0,9.18c-.32.26-.65.52-1,.77a3.61,3.61,0,0,1-1.1.58,4,4,0,0,1-1.23.39,8.19,8.19,0,0,1-1.22.13Z" transform="translate(-7.95 -14)"/><path d="M345.67,369H241.84a7,7,0,0,1-6.51-5,6.51,6.51,0,0,1,6.34-8H345.5a7,7,0,0,1,6.51,5A6.51,6.51,0,0,1,345.67,369Z" transform="translate(-7.95 -14)"/><path d="M397.2,369H371.37a7,7,0,0,1-6.51-5,6.51,6.51,0,0,1,6.34-8H397a7,7,0,0,1,6.51,5A6.51,6.51,0,0,1,397.2,369Z" transform="translate(-7.95 -14)"/><path d="M326.87,324.58A64.78,64.78,0,0,1,273,295.79a6.49,6.49,0,1,1,10.78-7.22,52,52,0,0,0,76.56,10.94,50.88,50.88,0,0,0,18.49-41.69A51.91,51.91,0,0,0,275,259.74l0,2.1a37.78,37.78,0,0,0,0,3.8,6.49,6.49,0,1,1-12.92,1.17c-.13-1.4-.09-3.45-.06-5.27l0-1.8a64.86,64.86,0,1,1,64.84,64.84Z" transform="translate(-7.95 -14)"/><path d="M267.84,272.67a6.44,6.44,0,0,1-4.57-1.89l-19.4-19.4a6.47,6.47,0,0,1,9.14-9.14l14.83,14.83,14.83-14.83a6.47,6.47,0,0,1,9.14,9.14l-19.4,19.4A6.44,6.44,0,0,1,267.84,272.67Z" transform="translate(-7.95 -14)"/><path d="M439.81,143.66a6.47,6.47,0,0,1-5.33-10.12l49-71.58a22,22,0,0,0-4.15-30.41A22.17,22.17,0,0,0,449,36.25L405.46,90.11A6.47,6.47,0,0,1,395.4,82l43.52-53.87A35.07,35.07,0,0,1,487,21.16a34.89,34.89,0,0,1,7.1,48.12l-48.94,71.56A6.45,6.45,0,0,1,439.81,143.66Z" transform="translate(-7.95 -14)"/><path d="M358.34,144.53a6.44,6.44,0,0,1-6.47-6.44,6.65,6.65,0,0,1,1.46-4.16l.9-1.1a6.47,6.47,0,1,1,10,8.2l-.71.87a6.46,6.46,0,0,1-5.2,2.63Z" transform="translate(-7.95 -14)"/><path d="M448.09,128.78c-2.69-2.38-26-23.74-16.26-41,10-17.76,41.92-4.32,45.52-2.73l-5.22,11.83c-10-4.4-26.1-7.9-29-2.73-3.45,6.09,7.14,19.23,13.56,24.91Z" transform="translate(-7.95 -14)"/><path class="cls-1" d="M238.78,100.44l2.45,10.65" transform="translate(-7.95 -14)"/><polygon class="cls-1" points="231.05 33.24 231.05 33.3 200.14 40.35 231.05 33.24"/><polygon class="cls-1" points="231.05 33.24 231.05 33.3 200.14 40.35 231.05 33.24"/><path class="cls-4" d="M254.87,72.34l-21,4.85-6.27,1.49a38.73,38.73,0,0,0-29.1,46.5l3,13.32a6.25,6.25,0,0,0-4.4,3l-9.64,16a20.64,20.64,0,0,0-1.55,2.91l-7.18-31.3a38.73,38.73,0,0,1,29.1-46.49l6.27-1.49L245.1,74,252,72.4A6.07,6.07,0,0,1,254.87,72.34Z" transform="translate(-7.95 -14)"/><polygon class="cls-2" points="211.05 37.12 211.05 37.19 180.14 44.23 211.05 37.12"/><polygon class="cls-2" points="211.05 37.12 211.05 37.19 180.14 44.23 211.05 37.12"/><path d="M185.87,165.32l-.61,0a6.47,6.47,0,0,1-5.69-5L172.39,129a45.19,45.19,0,0,1,34-54.24L250.48,64.6a12.6,12.6,0,0,1,9.74,1.64,13,13,0,0,1,5.73,8l14.95,64.93a6.49,6.49,0,0,1-.76,4.79l-8,13.19a13,13,0,0,1-22.21,0l-8.34-13.83-8.46,13.86a12.94,12.94,0,0,1-22.19,0l-8.34-13.83-9.68,16a15.4,15.4,0,0,0-1.17,2.18A6.47,6.47,0,0,1,185.87,165.32ZM241.61,131h0a12.88,12.88,0,0,1,11.08,6.21l8.35,13.86,6.65-11-14.35-62.3L209.28,88A32.26,32.26,0,0,0,185,126.69l3.56,15.48,3-4.94a13,13,0,0,1,22.18,0l8.36,13.87,8.46-13.86A12.88,12.88,0,0,1,241.61,131Z" transform="translate(-7.95 -14)"/><path d="M241.23,117.56a6.47,6.47,0,0,1-6.3-5l-2.45-10.65A6.47,6.47,0,0,1,245.09,99l2.45,10.65a6.47,6.47,0,0,1-4.85,7.75A6.67,6.67,0,0,1,241.23,117.56Z" transform="translate(-7.95 -14)"/><path d="M214.06,86a6.47,6.47,0,0,1-6.3-5l-5.82-25.22A6.47,6.47,0,0,1,206.81,48L237.72,41a6.46,6.46,0,0,1,7.74,4.85L251.28,71a6.47,6.47,0,0,1-4.85,7.76l-30.91,7.11A6.72,6.72,0,0,1,214.06,86ZM216,59.22l2.91,12.6,18.3-4.21L234.31,55Z" transform="translate(-7.95 -14)"/><path id="SVGCleanerId_0" data-name="SVGCleanerId 0" d="M208.61,60.82a6.51,6.51,0,0,1-6.16-8.53A6.26,6.26,0,0,1,207.2,48h0l30.88-7.11a6.51,6.51,0,0,1,7.54,4,6.1,6.1,0,0,1,.38,2.25v.06a6.47,6.47,0,0,1-5,6.31l-30.91,7.05a6.5,6.5,0,0,1-1.45.16Z" transform="translate(-7.95 -14)"/><path d="M195.12,63.86a6.45,6.45,0,0,1-6.3-5l-5.75-25.22a6.46,6.46,0,0,1,4.85-7.74L238.8,14.17A6.46,6.46,0,0,1,246.56,19l5.82,25.22A6.46,6.46,0,0,1,247.49,52l-50.91,11.7A6.35,6.35,0,0,1,195.12,63.86Zm2-26.83L200,49.63l38.33-8.83-2.9-12.58Z" transform="translate(-7.95 -14)"/><path id="SVGCleanerId_0-2" data-name="SVGCleanerId 0" d="M208.61,60.82a6.51,6.51,0,0,1-6.16-8.53A6.26,6.26,0,0,1,207.2,48h0l30.88-7.11a6.51,6.51,0,0,1,7.54,4,6.1,6.1,0,0,1,.38,2.25v.06a6.47,6.47,0,0,1-5,6.31l-30.91,7.05a6.5,6.5,0,0,1-1.45.16Z" transform="translate(-7.95 -14)"/><path d="M302.87,163h-5.42a7,7,0,0,1-6.51-5,6.51,6.51,0,0,1,6.34-8h5.42a7,7,0,0,1,6.51,5A6.51,6.51,0,0,1,302.87,163Z" transform="translate(-7.95 -14)"/><path d="M377.73,163h-2.36a7,7,0,0,1-6.51-5,6.51,6.51,0,0,1,6.34-8h2.53a23.08,23.08,0,0,0,2.69-.15,6.5,6.5,0,0,1,1.52,12.91,36.31,36.31,0,0,1-4.21.24Z" transform="translate(-7.95 -14)"/><path class="cls-5" d="M268.32,79.19a5.56,5.56,0,0,0,.06,1,13.34,13.34,0,0,0-2.13-.65,10.62,10.62,0,0,1,2.07-.39Z" transform="translate(-7.95 -14)"/><path class="cls-5" d="M400.43,86l-41.19,50.89a6.4,6.4,0,0,0-6.27,3l-8.41,13.84a6.48,6.48,0,0,1-11.12,0L329.3,147l4.72-7.76a6.4,6.4,0,0,1,6.27-3l41.19-50.89a36,36,0,0,0-11.83-5.76,33.33,33.33,0,0,1,8.08-.91A38.41,38.41,0,0,1,400.43,86Z" transform="translate(-7.95 -14)"/><path class="cls-5" d="M317.85,40.71a42.46,42.46,0,0,1,8.15-.84,38.83,38.83,0,0,1,38.8,38.61,30.66,30.66,0,0,0-6-.52,38,38,0,0,0-13.06,2.26,12.92,12.92,0,0,0,.13-2.26,38.8,38.8,0,0,0-28-37.25Z" transform="translate(-7.95 -14)"/><path class="cls-6" d="M381.69,85.33l-41.19,50.89a6.4,6.4,0,0,0-6.27,3L329.5,147l-4.2-7a6.53,6.53,0,0,0-11.12,0l-3.69,6.14-4.66,7.7a6.48,6.48,0,0,1-11.12,0L290.57,147l-4.27-7a6.53,6.53,0,0,0-11.12,0l-.39.65L261.08,81.06a30,30,0,0,1,5.37-1.49,13.42,13.42,0,0,1,2.13.65,5.5,5.5,0,0,1-.06-1,30.42,30.42,0,0,1,5.95-.52,38,38,0,0,1,13.06,2.26,12.93,12.93,0,0,1-.13-2.26,38.84,38.84,0,0,1,30.65-38,38.8,38.8,0,0,1,28,37.25,12.85,12.85,0,0,1-.13,2.26A38,38,0,0,1,359,78a30.61,30.61,0,0,1,6,.52v.19a12.85,12.85,0,0,1-.13,2.26,33.39,33.39,0,0,1,5-1.36A36,36,0,0,1,381.69,85.33Z" transform="translate(-7.95 -14)"/><path class="cls-6" d="M369.85,79.57a33.41,33.41,0,0,0-5,1.36,12.92,12.92,0,0,0,.13-2.26v-.19a24,24,0,0,1,4.85,1.1Z" transform="translate(-7.95 -14)"/><path d="M339,163.43a12.84,12.84,0,0,1-11.11-6.29l-8.34-13.83-8.39,13.84a12.95,12.95,0,0,1-22.2,0l-8.39-13.81-.45.64a6.47,6.47,0,0,1-11.83-1.9L254.58,82.51A6.47,6.47,0,0,1,258.64,75a45.7,45.7,0,0,1,22.49-2.28,45.27,45.27,0,0,1,89.75,0,45.59,45.59,0,0,1,33.36,8.1,6.47,6.47,0,0,1,1.23,9.3L364.27,141a6.37,6.37,0,0,1-5.72,2.36l-8.46,13.81A12.83,12.83,0,0,1,339,163.43Zm-19.47-33a12.88,12.88,0,0,1,11.08,6.2L339,150.47l8.46-13.86a12.82,12.82,0,0,1,8.56-6l34.66-42.82A32.62,32.62,0,0,0,366.89,87a6.47,6.47,0,0,1-8.58-7.21,8.45,8.45,0,0,0,0-1.13,32.33,32.33,0,1,0-64.67,0,8.58,8.58,0,0,0,0,1.14,6.61,6.61,0,0,1-2.3,6A6.5,6.5,0,0,1,285.11,87a32.22,32.22,0,0,0-16.54-1.36L278.9,130.5a13.09,13.09,0,0,1,12.73,6.11L300,150.45l8.4-13.82a12.89,12.89,0,0,1,11.1-6.23Z" transform="translate(-7.95 -14)"/><path d="M341.8,163h-5.42a7,7,0,0,1-6.51-5,6.51,6.51,0,0,1,6.34-8h5.42a7,7,0,0,1,6.51,5A6.51,6.51,0,0,1,341.8,163Z" transform="translate(-7.95 -14)"/><path d="M300.14,121.61a6.45,6.45,0,0,1-2-.33l-31.82-10.61a6.47,6.47,0,0,1,4.09-12.27L302.18,109a6.47,6.47,0,0,1-2,12.61Z" transform="translate(-7.95 -14)"/><path d="M351.86,119.15a6.47,6.47,0,0,1-1.32-12.8L383,99.56a6.47,6.47,0,0,1,2.65,12.66L353.2,119A6.72,6.72,0,0,1,351.86,119.15Z" transform="translate(-7.95 -14)"/><path d="M325.5,117.61a6.55,6.55,0,0,1-6.38-5.13,5.45,5.45,0,0,1-.12-1.27V72.05a6.33,6.33,0,0,1,3.88-5.93,6.54,6.54,0,0,1,9.12,6v39a6.5,6.5,0,0,1-6.5,6.5Z" transform="translate(-7.95 -14)"/><rect class="cls-7" x="413.05" y="116" width="311" height="266"/><path class="cls-8" d="M395,156v32c0,12.7,9,23.85,21.53,25.93A26,26,0,0,0,447,188.4V156Z" transform="translate(-7.95 -14)"/><path class="cls-9" d="M447,156v32c0,12.7,9,23.85,21.53,25.93A26,26,0,0,0,499,188.4V156Z" transform="translate(-7.95 -14)"/><path class="cls-8" d="M499,156v32c0,12.7,9,23.85,21.53,25.93A26,26,0,0,0,551,188.4V156Z" transform="translate(-7.95 -14)"/><path class="cls-9" d="M551,156v32c0,12.7,9,23.85,21.53,25.93A26,26,0,0,0,603,188.4V156Z" transform="translate(-7.95 -14)"/><path class="cls-8" d="M603,156v32c0,12.7,9,23.85,21.53,25.93A26,26,0,0,0,655,188.4V156Z" transform="translate(-7.95 -14)"/><path class="cls-9" d="M654,156v32c0,12.7,9,23.85,21.53,25.93A26,26,0,0,0,706,188.4V156Z" transform="translate(-7.95 -14)"/><path class="cls-8" d="M707,156v32c0,12.7,9,23.85,21.53,25.93A26,26,0,0,0,759,188.4V156Z" transform="translate(-7.95 -14)"/><polygon class="cls-10" points="750.98 142 386.98 142 425.98 64 711.98 64 750.98 142"/><rect class="cls-11" x="543.05" y="64" width="52" height="78"/><polygon class="cls-11" points="633.68 64 672.68 64 698.68 142 646.68 142 633.68 64"/><polygon class="cls-11" points="465.28 64 504.28 64 491.28 142 439.28 142 465.28 64"/><rect class="cls-12" x="530.05" y="220" width="78" height="162"/><rect class="cls-13" x="530.05" y="220" width="20" height="162"/><rect class="cls-14" x="446.05" y="220" width="52" height="65"/><rect class="cls-14" x="640.05" y="220" width="52" height="65"/><polygon class="cls-15" points="446.05 220 446.05 251.86 477.91 220 446.05 220"/><polygon class="cls-15" points="490.47 220 446.05 264.42 446.05 285 451.47 285 498.05 238.42 498.05 220 490.47 220"/><polygon class="cls-15" points="464.11 285 497.05 285 497.05 252.06 464.11 285"/><polygon class="cls-15" points="641.05 220 641.05 251.86 672.91 220 641.05 220"/><polygon class="cls-15" points="684.47 220 640.05 264.42 640.05 285 645.47 285 692.05 238.42 692.05 220 684.47 220"/><polygon class="cls-15" points="659.11 285 692.05 285 692.05 252.06 659.11 285"/><path class="cls-16" d="M506.81,370H453.15A12.19,12.19,0,0,1,441,357.85v-14.7A12.19,12.19,0,0,1,453.15,331h53.7A12.19,12.19,0,0,1,519,343.15v14.66A12.22,12.22,0,0,1,506.81,370Z" transform="translate(-7.95 -14)"/><path class="cls-17" d="M441,344v13.85A12.19,12.19,0,0,0,453.15,370h53.7A12.19,12.19,0,0,0,519,357.85V344Z" transform="translate(-7.95 -14)"/><path class="cls-16" d="M700.85,370h-53.7A12.19,12.19,0,0,1,635,357.85v-14.7A12.19,12.19,0,0,1,647.15,331h53.7A12.19,12.19,0,0,1,713,343.15v14.7A12.19,12.19,0,0,1,700.85,370Z" transform="translate(-7.95 -14)"/><path class="cls-17" d="M635,344v13.85A12.19,12.19,0,0,0,647.15,370h53.7A12.19,12.19,0,0,0,713,357.85V344Z" transform="translate(-7.95 -14)"/><rect class="cls-10" x="413.05" y="343" width="117" height="39"/><rect class="cls-10" x="608.05" y="343" width="117" height="39"/><rect class="cls-18" x="485.05" y="6" width="168" height="39"/><path d="M505.92,228H454.08a6.08,6.08,0,0,0-6.08,6.08V293h-6.52a6.18,6.18,0,0,0-6.28,5.84,6,6,0,0,0,6,6.16h76.52a6.18,6.18,0,0,0,6.28-5.84,6,6,0,0,0-6-6.16h-6V234.08A6.08,6.08,0,0,0,505.92,228ZM460,292V240h39v52Z" transform="translate(-7.95 -14)"/><path d="M699.92,228H648.08a6.08,6.08,0,0,0-6.08,6.08V293h-6.52a6.18,6.18,0,0,0-6.28,5.84,6,6,0,0,0,6,6.16h76.52a6.18,6.18,0,0,0,6.28-5.84,6,6,0,0,0-6-6.16h-6V234.09A6.08,6.08,0,0,0,699.92,228ZM655,292V240h39v52Z" transform="translate(-7.95 -14)"/><path d="M763.93,390H739V220.4A32,32,0,0,0,765,189V156.7a6.08,6.08,0,0,0-.64-2.71l-39-77.63A6.1,6.1,0,0,0,719.91,73H615V65h45.92A6.08,6.08,0,0,0,667,58.92V20.07A6.07,6.07,0,0,0,660.93,14H635.68a6.18,6.18,0,0,0-6.28,5.84,6,6,0,0,0,6,6.16H655V53H498V26H602.85a5.86,5.86,0,0,0,6.08-5.93A6.07,6.07,0,0,0,602.85,14H492.69c-3.35,0-5.69,6.08-5.69,6.08V58.92A6.08,6.08,0,0,0,493.08,65H539v7.56c0,.15,0,.3,0,.44H434.09a6.09,6.09,0,0,0-5.45,3.36l-39,77.76a6.09,6.09,0,0,0-.64,2.72v32.4a32.07,32.07,0,0,0,26,31.41V305a6.18,6.18,0,0,0,5.84,6.28,6,6,0,0,0,6.16-6V220a32.05,32.05,0,0,0,19.85-12.69,32,32,0,0,0,51.86,0,32,32,0,0,0,51.86,0,32,32,0,0,0,51.86,0,32,32,0,0,0,51.86,0,32,32,0,0,0,51.86,0A32.06,32.06,0,0,0,726,220V351h-7v-7.77A18.23,18.23,0,0,0,700.77,325H647.23A18.23,18.23,0,0,0,629,343.23V351h-7V233.08a6.08,6.08,0,0,0-6.08-6.08H538.08a6.08,6.08,0,0,0-6.08,6.08V351h-8v-7.77A18.23,18.23,0,0,0,505.77,325H453.23A18.23,18.23,0,0,0,435,343.23V351h-8V337.94s-1.89-5.77-4.9-6.2a6.26,6.26,0,0,0-7.1,6V390H389.08a6,6,0,0,0-6.2,5.05,6.06,6.06,0,0,0,6,6.95H763.73a6.19,6.19,0,0,0,6.2-5.18C770.46,393.08,763.93,390,763.93,390ZM748.72,150H710.87l-22-66h26.86ZM676.25,84l22,66H659.76l-11-66ZM545,84v66H506.18l11-66Zm12,0h39v66H557V84Zm52,0h27.82l11,66H609V84ZM551,72.56V65h52v8H551C551,72.85,551,72.71,551,72.56ZM505.1,84l-11,66H455.61l22-66Zm-67,0H465l-22,66H405.14ZM402,189.15V163h39v26.33a19.66,19.66,0,0,1-21.29,19.76C409.58,208.16,402,199.32,402,189.15Zm52,0V163h39v26.33a19.66,19.66,0,0,1-21.3,19.76C461.58,208.16,454,199.32,454,189.15Zm52,0V163h39v26.33a19.66,19.66,0,0,1-21.29,19.76C513.58,208.16,506,199.32,506,189.15Zm51,0V163h39v26.33a19.66,19.66,0,0,1-21.29,19.76C564.58,208.16,557,199.32,557,189.15Zm52,0V163h39v26.33a19.66,19.66,0,0,1-21.29,19.76C616.58,208.16,609,199.32,609,189.15Zm52,0V163h39v26.33a19.66,19.66,0,0,1-21.29,19.76C668.58,208.16,661,199.32,661,189.15Zm52,0V163h39v26.33a19.66,19.66,0,0,1-21.29,19.76C720.58,208.16,713,199.32,713,189.15Zm-72,154a6.15,6.15,0,0,1,6.11-6.18h53.81a6.08,6.08,0,0,1,6.08,6.08V351H641v-7.82Zm-194,0a6.15,6.15,0,0,1,6.11-6.18h53.81a6.08,6.08,0,0,1,6.08,6.08V351H447v-7.82ZM427,363H532v27H427ZM544,240h66V390H544Zm78,150V363H727v27Z" transform="translate(-7.95 -14)"/><text class="cls-19" transform="translate(0 533)"><tspan class="cls-20">T</tspan><tspan class="cls-21" x="55.36" y="0">ô </tspan><tspan class="cls-22" x="146.66" y="0">E</tspan><tspan class="cls-23" x="208.22" y="0">c</tspan><tspan class="cls-24" x="259.41" y="0">o</tspan><tspan class="cls-25" x="320.4" y="0">n</tspan><tspan class="cls-26" x="381.89" y="0">o</tspan><tspan class="cls-27" x="442.89" y="0">m</tspan><tspan class="cls-28" x="534.22" y="0">i</tspan><tspan class="cls-29" x="559.03" y="0">z</tspan><tspan class="cls-30" x="608.92" y="0">a</tspan><tspan class="cls-31" x="666.09" y="0">n</tspan><tspan class="cls-25" x="727.78" y="0">d</tspan><tspan class="cls-32" x="790.04" y="0">o</tspan><tspan x="845.94" y="0">?</tspan></text></svg>